
<svg xmlns="http://www.w3.org/2000/svg" version="1.1" xmlns:xlink="http://www.w3.org/1999/xlink" preserveAspectRatio="none" x="0px" y="0px" width="500px" height="500px" viewBox="0 0 500 500">
<defs>
<g id="Layer0_0_FILL">
<path fill="#FFFFFF" stroke="none" d="
M 554 76.05
Q 554 56.05 534 56.05
L 84 56.05
Q 64 56.05 64 76.05
L 64 526.05
Q 64 546.05 84 546.05
L 534 546.05
Q 554 546.05 554 526.05
L 554 76.05 Z"/>
</g>

<g id="Layer0_1_FILL">
<path fill="#0066CC" stroke="none" d="
M 394.1 462
Q 394.1 464.3 392.95 465.65 391.8 467 389.8 467 387.85 467 386.7 465.65 385.55 464.3 385.55 462
L 385.55 452.7 382.7 452.7 382.7 462.15
Q 382.7 465.75 384.7 467.7 386.7 469.65 389.8 469.65 392.95 469.65 394.95 467.7 396.9 465.75 396.9 462.15
L 396.9 452.7 394.1 452.7 394.1 462
M 362.9 452.7
L 362.9 469.5 365.7 469.5 365.7 457.25 375.2 469.5 378.3 469.5 378.3 452.7 375.45 452.7 375.45 465.25 365.7 452.7 362.9 452.7
M 347.2 455.3
L 352.3 455.3 352.3 452.7 339.3 452.7 339.3 455.3 344.4 455.3 344.4 469.5 347.2 469.5 347.2 455.3
M 358.2 452.7
L 355.4 452.7 355.4 469.5 358.2 469.5 358.2 452.7
M 409.45 452.7
L 406.45 452.7 399.05 469.5 402.05 469.5 403.75 465.7 412.15 465.7 413.85 469.5 416.85 469.5 409.45 452.7
M 407.95 456.15
L 411 463.05 404.9 463.05 407.95 456.15
M 430.9 454
Q 429.25 452.7 425.4 452.7
L 419.2 452.7 419.2 469.5 422 469.5 422 463.85 425.75 463.85 429.75 469.5 433.35 469.5 428.95 463.4
Q 432.55 462.35 432.55 458.15 432.55 455.3 430.9 454
M 425.6 455.3
Q 427.9 455.3 428.8 455.9 429.65 456.5 429.65 458.15 429.65 459.8 428.8 460.55 427.95 461.3 425.55 461.3
L 422 461.3 422 455.3 425.6 455.3
M 126.95 454.95
Q 128.2 454.95 129.45 455.35 130.75 455.8 131.5 456.45
L 133 454.35
Q 131.85 453.4 130.25 452.85 128.65 452.3 127.05 452.3 124.55 452.3 122.9 453.55 121.2 454.85 121.2 457.15 121.2 459.5 122.65 460.6 123.4 461.2 124.4 461.6 125.35 461.95 127.2 462.4 129.05 462.85 129.8 463.4 130.55 463.95 130.55 464.9 130.55 465.9 129.75 466.45 128.95 467.05 127.55 467.05 124.85 467.05 122.3 464.85
L 120.5 467
Q 123.55 469.7 127.5 469.7 130.2 469.7 131.85 468.35 133.5 466.95 133.5 464.75 133.5 462.55 132.2 461.45 130.9 460.3 128.3 459.7 125.7 459.05 124.95 458.5 124.15 458 124.15 456.95 124.15 455.95 124.95 455.45 125.7 454.95 126.95 454.95
M 139.8 452.7
L 137 452.7 137 469.5 139.8 469.5 139.8 452.7
M 158.5 454.8
Q 156 452.3 152.25 452.3 148.5 452.3 145.95 454.8 143.4 457.3 143.4 461 143.4 464.7 145.95 467.2 148.5 469.65 152.25 469.65 156 469.65 158.5 467.2 161.05 464.7 161.05 461 161.05 457.3 158.5 454.8
M 152.25 454.9
Q 154.7 454.9 156.45 456.7 158.15 458.45 158.15 461 158.15 463.5 156.45 465.3 154.7 467.05 152.25 467.05 149.75 467.05 148 465.3 146.3 463.5 146.3 461 146.3 458.45 148 456.7 149.75 454.9 152.25 454.9
M 83.6 463.15
Q 85.4 461.75 85.4 458.7 85.4 455.65 83.65 454.2 81.9 452.7 78.1 452.7
L 72.35 452.7 72.35 469.5 75.15 469.5 75.15 464.6 78.15 464.6
Q 81.85 464.6 83.6 463.15
M 82.5 458.45
Q 82.5 460.2 81.65 461.1 80.8 462 78.45 462
L 75.15 462 75.15 455.3 78.05 455.3
Q 80.35 455.3 81.45 456 82.5 456.75 82.5 458.45
M 100.45 454
Q 98.8 452.7 94.95 452.7
L 88.75 452.7 88.75 469.5 91.55 469.5 91.55 463.85 95.3 463.85 99.3 469.5 102.9 469.5 98.5 463.4
Q 102.1 462.35 102.1 458.15 102.1 455.3 100.45 454
M 95.15 455.3
Q 97.45 455.3 98.35 455.9 99.2 456.5 99.2 458.15 99.2 459.8 98.35 460.55 97.5 461.3 95.1 461.3
L 91.55 461.3 91.55 455.3 95.15 455.3
M 117.95 455.4
L 117.95 452.7 106.2 452.7 106.2 469.5 118.25 469.5 118.25 466.85 109 466.85 109 462.35 117.05 462.35 117.05 459.85 109 459.85 109 455.4 117.95 455.4
M 218.3 454.2
Q 216.55 452.7 212.75 452.7
L 207 452.7 207 469.5 209.8 469.5 209.8 464.6 212.8 464.6
Q 216.5 464.6 218.25 463.15 220.05 461.75 220.05 458.7 220.05 455.65 218.3 454.2
M 212.7 455.3
Q 215 455.3 216.1 456 217.15 456.75 217.15 458.45 217.15 460.2 216.3 461.1 215.45 462 213.1 462
L 209.8 462 209.8 455.3 212.7 455.3
M 231.45 452.7
L 228.45 452.7 221.05 469.5 224.05 469.5 225.75 465.7 234.15 465.7 235.85 469.5 238.85 469.5 231.45 452.7
M 226.9 463.05
L 229.95 456.15 233 463.05 226.9 463.05
M 180.05 452.7
L 177.2 452.7 177.2 465.25 167.45 452.7 164.65 452.7 164.65 469.5 167.45 469.5 167.45 457.25 176.95 469.5 180.05 469.5 180.05 452.7
M 196.45 455.4
L 196.45 452.7 184.7 452.7 184.7 469.5 196.75 469.5 196.75 466.85 187.5 466.85 187.5 462.35 195.55 462.35 195.55 459.85 187.5 459.85 187.5 455.4 196.45 455.4
M 295.7 457.15
L 297.5 455.2
Q 294.85 452.3 290.95 452.3 287.05 452.3 284.5 454.8 281.95 457.3 281.95 461.05 281.95 464.8 284.45 467.25 286.95 469.7 290.75 469.7 294.6 469.7 297.25 466.75
L 295.4 464.85
Q 294.25 465.95 293.2 466.45 292.15 466.95 290.7 466.95 288.35 466.95 286.6 465.2 284.9 463.5 284.9 460.95 284.9 458.4 286.65 456.75 288.35 455.1 290.9 455.1 292.35 455.1 293.4 455.55 294.5 456 295.7 457.15
M 314.7 467.2
Q 317.25 464.7 317.25 461 317.25 457.3 314.7 454.8 312.2 452.3 308.45 452.3 304.7 452.3 302.15 454.8 299.6 457.3 299.6 461 299.6 464.7 302.15 467.2 304.7 469.65 308.45 469.65 312.2 469.65 314.7 467.2
M 304.2 456.7
Q 305.95 454.9 308.45 454.9 310.9 454.9 312.65 456.7 314.35 458.45 314.35 461 314.35 463.5 312.65 465.3 310.9 467.05 308.45 467.05 305.95 467.05 304.2 465.3 302.5 463.5 302.5 461 302.5 458.45 304.2 456.7
M 323.65 452.7
L 320.85 452.7 320.85 469.5 323.65 469.5 323.65 457.25 333.15 469.5 336.25 469.5 336.25 452.7 333.4 452.7 333.4 465.25 323.65 452.7
M 252.9 454
Q 251.25 452.7 247.4 452.7
L 241.2 452.7 241.2 469.5 244 469.5 244 463.85 247.75 463.85 251.75 469.5 255.35 469.5 250.95 463.4
Q 254.55 462.35 254.55 458.15 254.55 455.3 252.9 454
M 247.6 455.3
Q 249.9 455.3 250.8 455.9 251.65 456.5 251.65 458.15 251.65 459.8 250.8 460.55 249.95 461.3 247.55 461.3
L 244 461.3 244 455.3 247.6 455.3
M 266.7 452.7
L 263.7 452.7 256.3 469.5 259.3 469.5 261 465.7 269.4 465.7 271.1 469.5 274.1 469.5 266.7 452.7
M 265.2 456.15
L 268.25 463.05 262.15 463.05 265.2 456.15 Z"/>
</g>

<g id="Layer0_2_FILL">
<path fill="#0066CC" stroke="none" d="
M 105.8 58.8
Q 105.8 58.85 105.75 58.85 101.8 60.1 100.75 64.25 100.75 64.5 100.75 64.7 100.75 64.75 100.75 64.8 100.7 64.8 100.65 64.8 100.65 73.5 100.65 82.2 100.65 90.9 100.65 99.6 100.65 106.45 100.65 113.3 100.65 113.95 100.65 114.55 100.65 114.6 100.65 114.65 100.6 115.15 100.25 115.35 98.95 116.1 98.3 114.85 98.3 114.8 98.3 114.75 98.35 113.9 98.2 113.3 98.2 113.25 98.2 113.2 98.2 112.9 98.2 112.65 98.2 103.95 98.25 95.25 98.25 86.45 98.1 77.95 98.1 77.9 98.1 77.85 97.15 73 92.25 72.1
L 92.25 72.05
Q 91.4 72 90.5 72 90.5 72.05 90.5 72.1 90.45 72.1 90.4 72.1 85.5 72.95 84.5 77.75 84.5 77.85 84.5 77.95 84.5 78 84.5 78.05 84.45 78.05 84.4 78.05 84.4 78.35 84.4 78.7 84.4 78.75 84.4 78.8 84.4 81.95 84.4 85.15 84.4 93.85 84.4 102.5 84.4 111.2 84.4 119.9 84.4 128.6 84.4 137.3 84.4 137.35 84.4 137.4 84.25 137.8 83.9 138 83.65 138 83.5 137.9 79.95 134.95 76.8 131.6 75.75 130.45 74.8 129.25 72.6 126.5 68.75 125.45
L 68.75 125.4
Q 67.7 125.35 66.6 125.35 66.6 125.4 66.6 125.45 66.55 125.45 66.5 125.45 61.45 126.55 60.4 131.7 60.4 131.8 60.4 131.85 60.4 131.9 60.4 131.95 60.35 131.95 60.3 131.95 60.3 132.8 60.35 133.6
L 60.4 133.6
Q 61.25 137.15 63.4 139.35 64.5 140.45 65.5 141.65 69.45 146.4 73.35 151.2 77.25 156 81 160.95 84.75 165.9 88.9 170.4 93.05 174.95 98.65 178.1 102.3 180.1 106.85 181.25 107.05 181.45 107.55 181.45 107.6 181.45 107.65 181.45 109.25 181.8 111.1 181.95
L 111.1 182
Q 111.45 182.2 112 182.1 112.05 182.1 112.1 182.1 112.4 182.1 112.7 182.1 112.75 182.1 112.8 182.1 113 182.3 113.45 182.2 113.5 182.2 113.55 182.2 113.65 182.2 113.75 182.2 113.8 182.2 113.85 182.2 115.05 182.4 116.45 182.25
L 116.45 182.2
Q 116.5 182.2 116.55 182.2 116.9 182.2 117.25 182.2 117.3 182.2 117.35 182.2 117.75 182.2 118.1 182.15
L 118.1 182.1
Q 118.65 182.15 119 182.05 119.05 182 119.1 182 119.5 182 119.85 181.95
L 119.85 181.9
Q 119.9 181.9 119.95 181.9 120.6 181.9 121.1 181.8 121.15 181.8 121.15 181.75 128.5 180.4 133.75 177 139.05 173.5 142.55 168.3 145.55 163.9 146.5 157.45 146.65 157.2 146.6 156.75 146.6 156.7 146.6 156.65 146.6 156.6 146.6 156.55 146.75 156.35 146.7 155.9 146.7 155.85 146.7 155.8 146.7 155.75 146.7 155.7 146.7 155.55 146.7 155.4 146.85 155.15 146.8 154.7 146.8 154.65 146.8 154.6 146.8 154.55 146.8 154.5 146.8 154.2 146.8 153.95 146.95 153.6 146.9 153.05 146.9 153 146.9 152.95 146.9 152.9 146.9 152.85 146.9 152.8 146.9 152.75 147.05 152.3 147 151.6 147 151.55 147 151.5 147 145.75 147 140.05 147 131.35 147 122.65 147 113.95 147 105.25 147.05 96.45 146.9 87.95 146.9 87.9 146.9 87.85 146.15 82.5 140.95 81.65
L 140.95 81.6
Q 140.15 81.55 139.3 81.55 139.3 81.6 139.3 81.65 139.25 81.65 139.2 81.65 134 82.5 133.2 87.85 133.2 87.9 133.2 87.95 133.2 88 133.2 88.05 133.15 88.05 133.1 88.05 133.1 96.75 133.1 105.45 133.1 109.35 133.1 113.3 133.1 114 133.1 114.65 133.1 114.7 133.1 114.75 133 115.2 132.65 115.35 131.25 116.05 130.75 114.75 130.75 112.1 130.75 109.4 130.75 100.75 130.8 92.05 130.85 83.25 130.65 74.75 130.65 74.7 130.65 74.65 129.9 69.4 124.85 68.5
L 124.85 68.45
Q 123.75 68.4 122.7 68.4 122.7 68.45 122.7 68.5 122.65 68.5 122.6 68.5 118.3 69.5 117.05 73.55 117.05 73.6 117.05 73.65 117.15 74.15 116.95 74.45 116.95 74.6 116.95 74.75 116.95 74.8 116.95 74.85 116.9 74.85 116.85 74.85 116.85 83.5 116.85 92.2 116.85 100.9 116.85 109.6 116.85 112.15 116.85 114.65 116.8 115.2 116.45 115.35 115 116.05 114.55 114.75 114.55 107.35 114.55 99.9 114.55 91.2 114.55 82.5 114.6 73.75 114.45 65.2 114.45 65.15 114.4 65.1 113.75 59.45 108.2 58.7
L 108.2 58.65
Q 107.6 58.6 106.95 58.6 106.95 58.65 106.95 58.7 106.9 58.7 106.85 58.7 106.45 58.85 105.8 58.8 Z"/>
</g>

<g id="Layer0_3_FILL">
<path fill="#000000" stroke="none" d="
M 206.55 147.65
L 206.55 125.2 216.2 125.2 192.95 101.95 169.7 125.2 179.35 125.2 179.35 147.65 206.55 147.65 Z"/>
</g>

<g id="Layer0_4_FILL">
<path fill="#FF0000" stroke="none" d="
M -338.35 220.35
Q -343.65 215.05 -351.1 215.05 -358.55 215.05 -363.85 220.35 -369.1 225.6 -369.1 233.05 -369.1 240.55 -363.85 245.8 -358.55 251.05 -351.1 251.05 -343.65 251.05 -338.35 245.8 -333.1 240.55 -333.1 233.05 -333.1 225.6 -338.35 220.35 Z"/>
</g>

<g id="Layer0_5_FILL">
<path fill="#FF0000" stroke="none" d="
M -419.1 117.8
Q -419.1 116.65 -419.9 115.85 -420.7 115.05 -421.85 115.05 -423 115.05 -423.8 115.85 -424.6 116.65 -424.6 117.8 -424.6 118.95 -423.8 119.75 -423 120.55 -421.85 120.55 -420.7 120.55 -419.9 119.75 -419.1 118.95 -419.1 117.8 Z"/>
</g>

<g id="Layer0_6_FILL">
<path fill="#0066CC" stroke="none" d="
M 230.05 276.65
L 227 276.65 221.4 290.95 224.45 290.95 225.65 287.7 231.35 287.7 232.6 290.95 235.75 290.95 230.05 276.65
M 230.45 285.3
L 226.55 285.3 228.45 279.95 230.45 285.3
M 210.75 290.95
L 220.8 290.95 220.8 288.55 213.6 288.55 213.6 276.75 210.75 276.75 210.75 290.95
M 216.75 252.3
L 213.7 252.3 208.1 266.6 211.15 266.6 212.35 263.35 218.05 263.35 219.3 266.6 222.45 266.6 216.75 252.3
M 217.15 260.95
L 213.25 260.95 215.15 255.6 217.15 260.95
M 226.85 252.3
L 224.05 252.3 224.05 266.6 226.7 266.6 226.7 257.25 232.5 266.6 235.4 266.6 235.4 252.3 232.7 252.3 232.7 261.85 226.85 252.3
M 191.2 276.65
L 188.15 276.65 182.55 290.95 185.6 290.95 186.8 287.7 192.5 287.7 193.75 290.95 196.9 290.95 191.2 276.65
M 191.6 285.3
L 187.7 285.3 189.6 279.95 191.6 285.3
M 201.4 276.75
L 198.55 276.75 198.55 290.95 208.6 290.95 208.6 288.55 201.4 288.55 201.4 276.75
M 172.3 276.65
L 172.3 279.05 176.55 279.05 176.55 290.95 179.4 290.95 179.4 279.05 183.65 279.05 183.65 276.65 172.3 276.65
M 181.55 259.6
Q 181.55 257.55 181.1 256.2 180.6 254.8 179.7 253.9 178.8 252.95 177.55 252.55 176.6 252.3 174.85 252.3
L 169.55 252.3 169.55 266.6 175 266.6
Q 176.6 266.6 177.55 266.3 178.8 265.9 179.55 265.15 180.55 264.2 181.1 262.65 181.55 261.35 181.55 259.6
M 172.45 254.7
L 173.75 254.7
Q 175.5 254.7 176.1 254.85 176.9 255 177.45 255.5 177.95 256 178.25 256.9 178.55 257.8 178.55 259.45 178.55 261.1 178.25 262.1 177.95 263.05 177.5 263.45 177.05 263.9 176.35 264.05 175.8 264.2 174.6 264.2
L 172.45 264.2 172.45 254.7
M 200.3 252.4
L 197.45 252.4 197.45 266.6 207.5 266.6 207.5 264.2 200.3 264.2 200.3 252.4
M 194.6 254.7
L 194.6 252.3 184 252.3 184 266.6 194.9 266.6 194.9 264.2 186.9 264.2 186.9 260.3 194.1 260.3 194.1 257.9 186.9 257.9 186.9 254.7 194.6 254.7
M 197.8 231.9
Q 197.4 229.95 195.9 228.8 194.4 227.7 191.7 227.7 189.65 227.7 188.3 228.4 186.5 229.35 185.55 231.05 184.6 232.8 184.6 235.05 184.6 237.1 185.45 238.85 186.3 240.6 187.95 241.55 189.65 242.5 191.85 242.5 193.65 242.5 195.35 241.85 197.1 241.15 198 240.3
L 198 234.55 191.75 234.55 191.75 237 195.1 237 195.1 238.8
Q 194.4 239.3 193.5 239.65 192.6 240 191.7 240 189.85 240 188.7 238.75 187.6 237.45 187.6 234.95 187.6 232.55 188.7 231.35 189.8 230.15 191.7 230.15 192.95 230.15 193.8 230.8 194.65 231.4 194.95 232.45
L 197.8 231.9
M 167.45 242.25
L 177.5 242.25 177.5 239.85 170.3 239.85 170.3 228.05 167.45 228.05 167.45 242.25
M 179.45 227.95
L 179.45 242.25 182.35 242.25 182.35 227.95 179.45 227.95
M 168.7 203.7
L 165.85 203.7 165.85 217.9 175.9 217.9 175.9 215.5 168.7 215.5 168.7 203.7
M 186.45 214.65
L 187.7 217.9 190.85 217.9 185.15 203.6 182.1 203.6 176.5 217.9 179.55 217.9 180.75 214.65 186.45 214.65
M 183.55 206.9
L 185.55 212.25 181.65 212.25 183.55 206.9
M 230.05 242.25
L 231.25 239 236.95 239 238.2 242.25 241.35 242.25 235.65 227.95 232.6 227.95 227 242.25 230.05 242.25
M 234.05 231.25
L 236.05 236.6 232.15 236.6 234.05 231.25
M 211.25 230.35
L 211.25 227.95 200.65 227.95 200.65 242.25 211.55 242.25 211.55 239.85 203.55 239.85 203.55 235.95 210.75 235.95 210.75 233.55 203.55 233.55 203.55 230.35 211.25 230.35
M 220.1 227.95
L 214 227.95 214 242.25 216.9 242.25 216.9 236.25 217.5 236.25
Q 218.5 236.25 218.95 236.45 219.4 236.6 219.8 237.05 220.25 237.45 221.35 239.15
L 223.45 242.25 226.9 242.25 225.15 239.45
Q 224.1 237.8 223.5 237.15 222.9 236.5 221.95 235.95 223.85 235.65 224.8 234.6 225.7 233.55 225.7 231.95 225.7 230.7 225.1 229.7 224.45 228.7 223.45 228.3 222.4 227.95 220.1 227.95
M 216.9 234
L 216.9 230.35 219.15 230.35
Q 220.9 230.35 221.25 230.4 221.95 230.5 222.35 230.95 222.75 231.4 222.75 232.15 222.75 232.8 222.45 233.2 222.15 233.65 221.65 233.8 221.1 234 219.05 234
L 216.9 234
M 207.7 210.2
Q 208.15 209.3 208.15 208 208.15 206.3 207.35 205.2 206.5 204.1 205.3 203.8 204.5 203.6 201.85 203.6
L 197.2 203.6 197.2 217.9 200.1 217.9 200.1 212.5 202 212.5
Q 203.95 212.5 205 212.3 205.75 212.15 206.5 211.6 207.2 211.1 207.7 210.2
M 203.55 206.1
Q 204.3 206.25 204.75 206.75 205.2 207.25 205.2 208.05 205.2 208.65 204.85 209.15 204.55 209.6 203.95 209.85 203.4 210.05 201.7 210.05
L 200.1 210.05 200.1 206 201.5 206
Q 203.05 206 203.55 206.1
M 216.2 203.6
L 213.15 203.6 207.55 217.9 210.6 217.9 211.8 214.65 217.5 214.65 218.75 217.9 221.9 217.9 216.2 203.6
M 216.6 212.25
L 212.7 212.25 214.6 206.9 216.6 212.25
M 226.4 203.7
L 223.55 203.7 223.55 217.9 233.6 217.9 233.6 215.5 226.4 215.5 226.4 203.7
M 302.05 276.65
L 302.05 290.95 304.95 290.95 304.95 285.55 306.85 285.55
Q 308.8 285.55 309.85 285.35 310.6 285.2 311.35 284.65 312.05 284.15 312.55 283.25 313 282.35 313 281.05 313 279.35 312.2 278.25 311.35 277.15 310.15 276.85 309.35 276.65 306.7 276.65
L 302.05 276.65
M 308.8 282.9
Q 308.25 283.1 306.55 283.1
L 304.95 283.1 304.95 279.05 306.35 279.05
Q 307.9 279.05 308.4 279.15 309.15 279.3 309.6 279.8 310.05 280.3 310.05 281.1 310.05 281.7 309.7 282.2 309.4 282.65 308.8 282.9
M 290 276.65
L 286.95 276.65 281.35 290.95 284.4 290.95 285.6 287.7 291.3 287.7 292.55 290.95 295.7 290.95 290 276.65
M 290.4 285.3
L 286.5 285.3 288.4 279.95 290.4 285.3
M 320.15 252.3
L 317.25 252.3 317.25 266.6 320.15 266.6 320.15 252.3
M 314.9 259.6
Q 314.9 257.55 314.45 256.2 313.95 254.8 313.05 253.9 312.15 252.95 310.9 252.55 309.95 252.3 308.2 252.3
L 302.9 252.3 302.9 266.6 308.35 266.6
Q 309.95 266.6 310.9 266.3 312.15 265.9 312.9 265.15 313.9 264.2 314.45 262.65 314.9 261.35 314.9 259.6
M 305.8 254.7
L 307.1 254.7
Q 308.85 254.7 309.45 254.85 310.25 255 310.8 255.5 311.3 256 311.6 256.9 311.9 257.8 311.9 259.45 311.9 261.1 311.6 262.1 311.3 263.05 310.85 263.45 310.4 263.9 309.7 264.05 309.15 264.2 307.95 264.2
L 305.8 264.2 305.8 254.7
M 277.8 277
Q 276.75 276.65 274.45 276.65
L 268.35 276.65 268.35 290.95 271.25 290.95 271.25 284.95 271.85 284.95
Q 272.85 284.95 273.3 285.15 273.75 285.3 274.15 285.75 274.6 286.15 275.7 287.85
L 277.8 290.95 281.25 290.95 279.5 288.15
Q 278.45 286.5 277.85 285.85 277.25 285.2 276.3 284.65 278.2 284.35 279.15 283.3 280.05 282.25 280.05 280.65 280.05 279.4 279.45 278.4 278.8 277.4 277.8 277
M 275.6 279.1
Q 276.3 279.2 276.7 279.65 277.1 280.1 277.1 280.85 277.1 281.5 276.8 281.9 276.5 282.35 276 282.5 275.45 282.7 273.4 282.7
L 271.25 282.7 271.25 279.05 273.5 279.05
Q 275.25 279.05 275.6 279.1
M 252.25 278.25
Q 251.4 277.15 250.2 276.85 249.4 276.65 246.75 276.65
L 242.1 276.65 242.1 290.95 245 290.95 245 285.55 246.9 285.55
Q 248.85 285.55 249.9 285.35 250.65 285.2 251.4 284.65 252.1 284.15 252.6 283.25 253.05 282.35 253.05 281.05 253.05 279.35 252.25 278.25
M 246.6 283.1
L 245 283.1 245 279.05 246.4 279.05
Q 247.95 279.05 248.45 279.15 249.2 279.3 249.65 279.8 250.1 280.3 250.1 281.1 250.1 281.7 249.75 282.2 249.45 282.65 248.85 282.9 248.3 283.1 246.6 283.1
M 261.1 276.65
L 258.05 276.65 252.45 290.95 255.5 290.95 256.7 287.7 262.4 287.7 263.65 290.95 266.8 290.95 261.1 276.65
M 261.5 285.3
L 257.6 285.3 259.5 279.95 261.5 285.3
M 248.8 254.7
L 248.8 252.3 237.45 252.3 237.45 254.7 241.7 254.7 241.7 266.6 244.55 266.6 244.55 254.7 248.8 254.7
M 260.75 257.9
L 253.55 257.9 253.55 254.7 261.25 254.7 261.25 252.3 250.65 252.3 250.65 266.6 261.55 266.6 261.55 264.2 253.55 264.2 253.55 260.3 260.75 260.3 260.75 257.9
M 282.95 252.3
L 282.95 266.6 285.6 266.6 285.6 257.25 291.4 266.6 294.3 266.6 294.3 252.3 291.6 252.3 291.6 261.85 285.75 252.3 282.95 252.3
M 280.15 254.7
L 280.15 252.3 269.55 252.3 269.55 266.6 280.45 266.6 280.45 264.2 272.45 264.2 272.45 260.3 279.65 260.3 279.65 257.9 272.45 257.9 272.45 254.7 280.15 254.7
M 248.4 242.25
L 251.15 242.25 254 231 254 242.25 256.7 242.25 256.7 227.95 252.35 227.95 249.8 237.7 247.2 227.95 242.85 227.95 242.85 242.25 245.55 242.25 245.55 231 248.4 242.25
M 262.45 233.55
L 262.45 230.35 270.15 230.35 270.15 227.95 259.55 227.95 259.55 242.25 270.45 242.25 270.45 239.85 262.45 239.85 262.45 235.95 269.65 235.95 269.65 233.55 262.45 233.55
M 249.45 203.6
L 245.1 203.6 242.55 213.35 239.95 203.6 235.6 203.6 235.6 217.9 238.3 217.9 238.3 206.65 241.15 217.9 243.9 217.9 246.75 206.65 246.75 217.9 249.45 217.9 249.45 203.6
M 259.5 203.6
L 256.45 203.6 250.85 217.9 253.9 217.9 255.1 214.65 260.8 214.65 262.05 217.9 265.2 217.9 259.5 203.6
M 259.9 212.25
L 256 212.25 257.9 206.9 259.9 212.25
M 282.15 206
L 282.15 203.6 271.55 203.6 271.55 217.9 282.45 217.9 282.45 215.5 274.45 215.5 274.45 211.6 281.65 211.6 281.65 209.2 274.45 209.2 274.45 206 282.15 206
M 284.3 242.25
L 284.3 227.95 281.6 227.95 281.6 237.5 275.75 227.95 272.95 227.95 272.95 242.25 275.6 242.25 275.6 232.9 281.4 242.25 284.3 242.25
M 297.7 230.35
L 297.7 227.95 286.35 227.95 286.35 230.35 290.6 230.35 290.6 242.25 293.45 242.25 293.45 230.35 297.7 230.35
M 302.45 233.55
L 302.45 230.35 310.15 230.35 310.15 227.95 299.55 227.95 299.55 242.25 310.45 242.25 310.45 239.85 302.45 239.85 302.45 235.95 309.65 235.95 309.65 233.55 302.45 233.55
M 292.95 203.6
L 290.15 208.2 287.3 203.6 283.9 203.6 288.35 210.45 283.45 217.9 286.9 217.9 290.1 212.95 293.25 217.9 296.75 217.9 291.85 210.55 296.3 203.6 292.95 203.6
M 308.6 206
L 308.6 203.6 297.25 203.6 297.25 206 301.5 206 301.5 217.9 304.35 217.9 304.35 206 308.6 206
M 321.05 206
L 321.05 203.6 310.45 203.6 310.45 217.9 321.35 217.9 321.35 215.5 313.35 215.5 313.35 211.6 320.55 211.6 320.55 209.2 313.35 209.2 313.35 206 321.05 206
M 151.6 276.65
L 148.55 276.65 142.95 290.95 146 290.95 147.2 287.7 152.9 287.7 154.15 290.95 157.3 290.95 151.6 276.65
M 150 279.95
L 152 285.3 148.1 285.3 150 279.95
M 161.7 276.65
L 158.9 276.65 158.9 290.95 161.55 290.95 161.55 281.6 167.35 290.95 170.25 290.95 170.25 276.65 167.55 276.65 167.55 286.2 161.7 276.65
M 140.7 276.85
Q 139.9 276.65 137.25 276.65
L 132.6 276.65 132.6 290.95 135.5 290.95 135.5 285.55 137.4 285.55
Q 139.35 285.55 140.4 285.35 141.15 285.2 141.9 284.65 142.6 284.15 143.1 283.25 143.55 282.35 143.55 281.05 143.55 279.35 142.75 278.25 141.9 277.15 140.7 276.85
M 135.5 283.1
L 135.5 279.05 136.9 279.05
Q 138.45 279.05 138.95 279.15 139.7 279.3 140.15 279.8 140.6 280.3 140.6 281.1 140.6 281.7 140.25 282.2 139.95 282.65 139.35 282.9 138.8 283.1 137.1 283.1
L 135.5 283.1
M 130.95 252.3
L 130.95 266.6 133.85 266.6 133.85 252.3 130.95 252.3
M 149.5 266.6
L 143.8 252.3 140.75 252.3 135.15 266.6 138.2 266.6 139.4 263.35 145.1 263.35 146.35 266.6 149.5 266.6
M 142.2 255.6
L 144.2 260.95 140.3 260.95 142.2 255.6
M 159.25 252.3
L 153.65 266.6 156.7 266.6 157.9 263.35 163.6 263.35 164.85 266.6 168 266.6 162.3 252.3 159.25 252.3
M 158.8 260.95
L 160.7 255.6 162.7 260.95 158.8 260.95
M 104.1 276.75
L 101.25 276.75 101.25 290.95 111.3 290.95 111.3 288.55 104.1 288.55 104.1 276.75
M 120.55 276.65
L 117.5 276.65 111.9 290.95 114.95 290.95 116.15 287.7 121.85 287.7 123.1 290.95 126.25 290.95 120.55 276.65
M 120.95 285.3
L 117.05 285.3 118.95 279.95 120.95 285.3
M 89.1 276.65
L 86.05 276.65 80.45 290.95 83.5 290.95 84.7 287.7 90.4 287.7 91.65 290.95 94.8 290.95 89.1 276.65
M 89.5 285.3
L 85.6 285.3 87.5 279.95 89.5 285.3
M 99.15 252.3
L 96.25 252.3 96.25 257.9 90.6 257.9 90.6 252.3 87.7 252.3 87.7 266.6 90.6 266.6 90.6 260.35 96.25 260.35 96.25 266.6 99.15 266.6 99.15 252.3
M 109.35 252.3
L 106.3 252.3 100.7 266.6 103.75 266.6 104.95 263.35 110.65 263.35 111.9 266.6 115.05 266.6 109.35 252.3
M 109.75 260.95
L 105.85 260.95 107.75 255.6 109.75 260.95
M 117.95 254
Q 116.1 256 116.1 259.55 116.1 262.95 117.95 264.9 119.75 266.85 122.6 266.85 124.95 266.85 126.45 265.7 127.9 264.55 128.55 262.25
L 125.75 261.35
Q 125.4 262.9 124.55 263.65 123.75 264.35 122.6 264.35 121.05 264.35 120.05 263.2 119.1 262.05 119.1 259.35 119.1 256.8 120.05 255.65 121.05 254.5 122.65 254.5 123.8 254.5 124.6 255.15 125.4 255.8 125.65 256.9
L 128.55 256.25
Q 128.05 254.5 127.05 253.6 125.4 252.05 122.8 252.05 119.8 252.05 117.95 254
M 119.9 227.95
L 117 227.95 117 235.85
Q 117 237.55 116.9 238.3 116.75 239 116.15 239.55 115.5 240 114.3 240 113.05 240 112.35 239.5 111.65 238.95 111.5 238.1 111.4 237.55 111.4 235.7
L 111.4 227.95 108.5 227.95 108.5 235.55
Q 108.5 237.95 108.75 239.2 108.95 240.05 109.6 240.8 110.2 241.55 111.25 242.05 112.3 242.5 114.35 242.5 116.05 242.5 117.1 242.05 118.15 241.65 118.8 240.9 119.45 240.15 119.65 239.1 119.9 238.05 119.9 235.45
L 119.9 227.95
M 94.5 231
L 97.35 242.25 100.1 242.25 102.95 231 102.95 242.25 105.65 242.25 105.65 227.95 101.3 227.95 98.75 237.7 96.15 227.95 91.8 227.95 91.8 242.25 94.5 242.25 94.5 231
M 155.3 227.95
L 152.25 227.95 146.65 242.25 149.7 242.25 150.9 239 156.6 239 157.85 242.25 161 242.25 155.3 227.95
M 153.7 231.25
L 155.7 236.6 151.8 236.6 153.7 231.25
M 133.55 230.35
L 133.55 227.95 122.95 227.95 122.95 242.25 133.85 242.25 133.85 239.85 125.85 239.85 125.85 235.95 133.05 235.95 133.05 233.55 125.85 233.55 125.85 230.35 133.55 230.35
M 138 227.95
L 134.85 227.95 139.95 242.25 143.05 242.25 148.15 227.95 145.1 227.95 141.6 238.55 138 227.95
M 127.7 207.55
Q 127.2 205.8 126.2 204.9 124.55 203.35 121.95 203.35 118.95 203.35 117.1 205.3 115.25 207.3 115.25 210.85 115.25 214.25 117.1 216.2 118.9 218.15 121.75 218.15 124.1 218.15 125.6 217 127.05 215.85 127.7 213.55
L 124.9 212.65
Q 124.55 214.2 123.7 214.95 122.9 215.65 121.75 215.65 120.2 215.65 119.2 214.5 118.25 213.35 118.25 210.65 118.25 208.1 119.2 206.95 120.2 205.8 121.8 205.8 122.95 205.8 123.75 206.45 124.55 207.1 124.8 208.2
L 127.7 207.55
M 141.6 205.3
Q 139.7 203.35 136.55 203.35 134.8 203.35 133.45 203.9 132.45 204.35 131.6 205.2 130.75 206.05 130.25 207.15 129.6 208.65 129.6 210.85 129.6 214.25 131.5 216.2 133.4 218.15 136.6 218.15 139.75 218.15 141.6 216.2 143.5 214.25 143.5 210.75 143.5 207.25 141.6 205.3
M 133.7 207.05
Q 134.8 205.8 136.55 205.8 138.35 205.8 139.45 207 140.5 208.25 140.5 210.7 140.5 213.2 139.4 214.45 138.3 215.65 136.55 215.65 134.85 215.65 133.7 214.4 132.6 213.15 132.6 210.75 132.6 208.25 133.7 207.05
M 157.15 203.6
L 154.45 203.6 154.45 213.15 148.6 203.6 145.8 203.6 145.8 217.9 148.45 217.9 148.45 208.55 154.25 217.9 157.15 217.9 157.15 203.6
M 399.3 276.65
L 396.25 276.65 390.65 290.95 393.7 290.95 394.9 287.7 400.6 287.7 401.85 290.95 405 290.95 399.3 276.65
M 399.7 285.3
L 395.8 285.3 397.7 279.95 399.7 285.3
M 380.5 276.65
L 377.7 276.65 377.7 290.95 380.35 290.95 380.35 281.6 386.15 290.95 389.05 290.95 389.05 276.65 386.35 276.65 386.35 286.2 380.5 276.65
M 377.1 256.25
Q 376.6 254.5 375.6 253.6 373.95 252.05 371.35 252.05 368.35 252.05 366.5 254 364.65 256 364.65 259.55 364.65 262.95 366.5 264.9 368.3 266.85 371.15 266.85 373.5 266.85 375 265.7 376.45 264.55 377.1 262.25
L 374.3 261.35
Q 373.95 262.9 373.1 263.65 372.3 264.35 371.15 264.35 369.6 264.35 368.6 263.2 367.65 262.05 367.65 259.35 367.65 256.8 368.6 255.65 369.6 254.5 371.2 254.5 372.35 254.5 373.15 255.15 373.95 255.8 374.2 256.9
L 377.1 256.25
M 382.4 252.3
L 379.5 252.3 379.5 266.6 382.4 266.6 382.4 252.3
M 398.45 259.45
Q 398.45 255.95 396.55 254 394.65 252.05 391.5 252.05 389.75 252.05 388.4 252.6 387.4 253.05 386.55 253.9 385.7 254.75 385.2 255.85 384.55 257.35 384.55 259.55 384.55 262.95 386.45 264.9 388.35 266.85 391.55 266.85 394.7 266.85 396.55 264.9 398.45 262.95 398.45 259.45
M 387.55 259.45
Q 387.55 256.95 388.65 255.75 389.75 254.5 391.5 254.5 393.3 254.5 394.4 255.7 395.45 256.95 395.45 259.4 395.45 261.9 394.35 263.15 393.25 264.35 391.5 264.35 389.8 264.35 388.65 263.1 387.55 261.85 387.55 259.45
M 359.35 276.65
L 356.45 276.65 356.45 290.95 359.35 290.95 359.35 276.65
M 363.5 278.25
Q 362.65 279.1 362.15 280.2 361.5 281.7 361.5 283.9 361.5 287.3 363.4 289.25 365.3 291.2 368.5 291.2 371.65 291.2 373.5 289.25 375.4 287.3 375.4 283.8 375.4 280.3 373.5 278.35 371.6 276.4 368.45 276.4 366.7 276.4 365.35 276.95 364.35 277.4 363.5 278.25
M 364.5 283.8
Q 364.5 281.3 365.6 280.1 366.7 278.85 368.45 278.85 370.25 278.85 371.35 280.05 372.4 281.3 372.4 283.75 372.4 286.25 371.3 287.5 370.2 288.7 368.45 288.7 366.75 288.7 365.6 287.45 364.5 286.2 364.5 283.8
M 326.2 283.3
Q 327.1 282.25 327.1 280.65 327.1 279.4 326.5 278.4 325.85 277.4 324.85 277 323.8 276.65 321.5 276.65
L 315.4 276.65 315.4 290.95 318.3 290.95 318.3 284.95 318.9 284.95
Q 319.9 284.95 320.35 285.15 320.8 285.3 321.2 285.75 321.65 286.15 322.75 287.85
L 324.85 290.95 328.3 290.95 326.55 288.15
Q 325.5 286.5 324.9 285.85 324.3 285.2 323.35 284.65 325.25 284.35 326.2 283.3
M 318.3 282.7
L 318.3 279.05 320.55 279.05
Q 322.3 279.05 322.65 279.1 323.35 279.2 323.75 279.65 324.15 280.1 324.15 280.85 324.15 281.5 323.85 281.9 323.55 282.35 323.05 282.5 322.5 282.7 320.45 282.7
L 318.3 282.7
M 340.45 279.05
L 340.45 276.65 329.85 276.65 329.85 290.95 340.75 290.95 340.75 288.55 332.75 288.55 332.75 284.65 339.95 284.65 339.95 282.25 332.75 282.25 332.75 279.05 340.45 279.05
M 343.6 278.35
Q 343 279.3 343 280.4 343 282.1 344.3 283.25 345.25 284.1 347.55 284.7 349.4 285.15 349.9 285.3 350.65 285.55 350.95 285.95 351.2 286.3 351.2 286.8 351.2 287.6 350.5 288.2 349.8 288.75 348.4 288.75 347.1 288.75 346.3 288.1 345.55 287.45 345.3 286
L 342.45 286.3
Q 342.75 288.7 344.2 289.95 345.65 291.2 348.4 291.2 350.25 291.2 351.5 290.7 352.75 290.15 353.45 289.1 354.1 288 354.1 286.8 354.1 285.4 353.55 284.5 352.95 283.6 351.95 283.05 350.95 282.5 348.85 282 346.75 281.5 346.2 281.05 345.75 280.7 345.75 280.2 345.75 279.65 346.2 279.3 346.95 278.8 348.2 278.8 349.4 278.8 350 279.25 350.65 279.75 350.8 280.85
L 353.7 280.75
Q 353.65 278.75 352.3 277.55 350.9 276.4 348.2 276.4 346.55 276.4 345.4 276.9 344.25 277.4 343.6 278.35
M 332.35 252.65
Q 331.3 252.3 329 252.3
L 322.9 252.3 322.9 266.6 325.8 266.6 325.8 260.6 326.4 260.6
Q 327.4 260.6 327.85 260.8 328.3 260.95 328.7 261.4 329.15 261.8 330.25 263.5
L 332.35 266.6 335.8 266.6 334.05 263.8
Q 333 262.15 332.4 261.5 331.8 260.85 330.85 260.3 332.75 260 333.7 258.95 334.6 257.9 334.6 256.3 334.6 255.05 334 254.05 333.35 253.05 332.35 252.65
M 327.95 258.35
L 325.8 258.35 325.8 254.7 328.05 254.7
Q 329.8 254.7 330.15 254.75 330.85 254.85 331.25 255.3 331.65 255.75 331.65 256.5 331.65 257.15 331.35 257.55 331.05 258 330.55 258.15 330 258.35 327.95 258.35
M 347.95 254.7
L 347.95 252.3 337.35 252.3 337.35 266.6 348.25 266.6 348.25 264.2 340.25 264.2 340.25 260.3 347.45 260.3 347.45 257.9 340.25 257.9 340.25 254.7 347.95 254.7
M 356.75 254.5
Q 357.9 254.5 358.7 255.15 359.5 255.8 359.75 256.9
L 362.65 256.25
Q 362.15 254.5 361.15 253.6 359.5 252.05 356.9 252.05 353.9 252.05 352.05 254 350.2 256 350.2 259.55 350.2 262.95 352.05 264.9 353.85 266.85 356.7 266.85 359.05 266.85 360.55 265.7 362 264.55 362.65 262.25
L 359.85 261.35
Q 359.5 262.9 358.65 263.65 357.85 264.35 356.7 264.35 355.15 264.35 354.15 263.2 353.2 262.05 353.2 259.35 353.2 256.8 354.15 255.65 355.15 254.5 356.75 254.5
M 363.7 227.95
L 359.35 227.95 356.8 237.7 354.2 227.95 349.85 227.95 349.85 242.25 352.55 242.25 352.55 231 355.4 242.25 358.15 242.25 361 231 361 242.25 363.7 242.25 363.7 227.95
M 328.6 242.25
L 328.6 239.85 321.4 239.85 321.4 228.05 318.55 228.05 318.55 242.25 328.6 242.25
M 337.85 227.95
L 334.8 227.95 329.2 242.25 332.25 242.25 333.45 239 339.15 239 340.4 242.25 343.55 242.25 337.85 227.95
M 338.25 236.6
L 334.35 236.6 336.25 231.25 338.25 236.6
M 335.2 217.9
L 335.2 203.6 332.5 203.6 332.5 213.15 326.65 203.6 323.85 203.6 323.85 217.9 326.5 217.9 326.5 208.55 332.3 217.9 335.2 217.9
M 352.6 203.6
L 352.6 217.9 355.5 217.9 355.5 203.6 352.6 203.6
M 348.4 205.2
Q 347.5 204.25 346.25 203.85 345.3 203.6 343.55 203.6
L 338.25 203.6 338.25 217.9 343.7 217.9
Q 345.3 217.9 346.25 217.6 347.5 217.2 348.25 216.45 349.25 215.5 349.8 213.95 350.25 212.65 350.25 210.9 350.25 208.85 349.8 207.5 349.3 206.1 348.4 205.2
M 344.8 206.15
Q 345.6 206.3 346.15 206.8 346.65 207.3 346.95 208.2 347.25 209.1 347.25 210.75 347.25 212.4 346.95 213.4 346.65 214.35 346.2 214.75 345.75 215.2 345.05 215.35 344.5 215.5 343.3 215.5
L 341.15 215.5 341.15 206 342.45 206
Q 344.2 206 344.8 206.15
M 373.75 227.95
L 370.7 227.95 365.1 242.25 368.15 242.25 369.35 239 375.05 239 376.3 242.25 379.45 242.25 373.75 227.95
M 374.15 236.6
L 370.25 236.6 372.15 231.25 374.15 236.6
M 383.85 227.95
L 381.05 227.95 381.05 242.25 383.7 242.25 383.7 232.9 389.5 242.25 392.4 242.25 392.4 227.95 389.7 227.95 389.7 237.5 383.85 227.95
M 368.4 205.2
Q 367.5 204.25 366.25 203.85 365.3 203.6 363.55 203.6
L 358.25 203.6 358.25 217.9 363.7 217.9
Q 365.3 217.9 366.25 217.6 367.5 217.2 368.25 216.45 369.25 215.5 369.8 213.95 370.25 212.65 370.25 210.9 370.25 208.85 369.8 207.5 369.3 206.1 368.4 205.2
M 366.15 206.8
Q 366.65 207.3 366.95 208.2 367.25 209.1 367.25 210.75 367.25 212.4 366.95 213.4 366.65 214.35 366.2 214.75 365.75 215.2 365.05 215.35 364.5 215.5 363.3 215.5
L 361.15 215.5 361.15 206 362.45 206
Q 364.2 206 364.8 206.15 365.6 206.3 366.15 206.8
M 379.9 203.6
L 376.85 203.6 371.25 217.9 374.3 217.9 375.5 214.65 381.2 214.65 382.45 217.9 385.6 217.9 379.9 203.6
M 380.3 212.25
L 376.4 212.25 378.3 206.9 380.3 212.25
M 417.65 278.4
Q 417 277.4 416 277 414.95 276.65 412.65 276.65
L 406.55 276.65 406.55 290.95 409.45 290.95 409.45 284.95 410.05 284.95
Q 411.05 284.95 411.5 285.15 411.95 285.3 412.35 285.75 412.8 286.15 413.9 287.85
L 416 290.95 419.45 290.95 417.7 288.15
Q 416.65 286.5 416.05 285.85 415.45 285.2 414.5 284.65 416.4 284.35 417.35 283.3 418.25 282.25 418.25 280.65 418.25 279.4 417.65 278.4
M 413.8 279.1
Q 414.5 279.2 414.9 279.65 415.3 280.1 415.3 280.85 415.3 281.5 415 281.9 414.7 282.35 414.2 282.5 413.65 282.7 411.6 282.7
L 409.45 282.7 409.45 279.05 411.7 279.05
Q 413.45 279.05 413.8 279.1
M 409.2 266.6
L 412.1 266.6 412.1 252.3 409.4 252.3 409.4 261.85 403.55 252.3 400.75 252.3 400.75 266.6 403.4 266.6 403.4 257.25 409.2 266.6
M 408.75 235.1
Q 408.75 231.6 406.85 229.65 404.95 227.7 401.8 227.7 400.05 227.7 398.7 228.25 397.7 228.7 396.85 229.55 396 230.4 395.5 231.5 394.85 233 394.85 235.2 394.85 238.6 396.75 240.55 398.65 242.5 401.85 242.5 405 242.5 406.85 240.55 408.75 238.6 408.75 235.1
M 397.85 235.1
Q 397.85 232.6 398.95 231.4 400.05 230.15 401.8 230.15 403.6 230.15 404.7 231.35 405.75 232.6 405.75 235.05 405.75 237.55 404.65 238.8 403.55 240 401.8 240 400.1 240 398.95 238.75 397.85 237.5 397.85 235.1 Z"/>
</g>

<g id="Layer0_7_FILL">
<path fill="#000000" stroke="none" d="
M 206 392.9
Q 206.5 392.55 207.15 392.55 207.65 392.55 208 392.8 208.35 393.05 208.5 393.5 208.65 393.9 208.65 395.45
L 208.65 400.2 211.15 400.2 211.15 394.4
Q 211.15 393.3 211 392.75 210.85 392.15 210.5 391.7 210.15 391.25 209.5 390.95 208.8 390.65 208 390.65 206.15 390.65 204.9 392.25
L 204.9 390.85 202.65 390.85 202.65 400.2 205.1 400.2 205.1 395.95
Q 205.1 394.4 205.3 393.8 205.5 393.25 206 392.9
M 217.45 370.1
Q 216.25 368.7 214.15 368.7 212.3 368.7 211.1 370 209.85 371.35 209.85 373.65 209.85 375.6 210.8 376.85 211.95 378.45 214.4 378.45 215.95 378.45 216.95 377.75 218 377.05 218.45 375.7
L 216 375.3
Q 215.8 376 215.4 376.3 215 376.6 214.45 376.6 213.6 376.6 213 376 212.45 375.4 212.4 374.3
L 218.6 374.3
Q 218.65 371.45 217.45 370.1
M 214.3 370.6
Q 215.05 370.6 215.6 371.15 216.1 371.7 216.15 372.8
L 212.45 372.8
Q 212.45 371.75 212.95 371.2 213.5 370.6 214.3 370.6
M 195.9 387.1
L 194.7 389.7 196.25 389.7 198.7 387.1 195.9 387.1
M 186.7 389.6
L 189.15 389.6 189.15 387.3 186.7 387.3 186.7 389.6
M 189.15 390.85
L 186.7 390.85 186.7 400.2 189.15 400.2 189.15 390.85
M 191.75 393
Q 191.1 394.15 191.1 395.4 191.1 397 191.75 398.15 192.35 399.25 193.5 399.85 194.65 400.4 195.95 400.4 198.05 400.4 199.4 399 200.75 397.6 200.75 395.5 200.75 393.4 199.4 392.05 198.05 390.65 195.95 390.65 194.55 390.65 193.45 391.25 192.35 391.85 191.75 393
M 194.3 393.4
Q 194.95 392.65 195.95 392.65 196.9 392.65 197.55 393.4 198.2 394.15 198.2 395.5 198.2 396.9 197.55 397.65 196.9 398.4 195.95 398.4 194.95 398.4 194.3 397.65 193.65 396.9 193.65 395.55 193.65 394.15 194.3 393.4
M 199.05 373.55
Q 199.05 375.85 200.2 377.15 201.35 378.45 202.95 378.45 203.75 378.45 204.5 378.05 205.3 377.7 205.85 376.9
L 205.85 378.25 208.15 378.25 208.15 365.35 205.7 365.35 205.7 370
Q 204.55 368.7 203 368.7 201.25 368.7 200.15 369.95 199.05 371.15 199.05 373.55
M 201.55 373.4
Q 201.55 372 202.15 371.3 202.75 370.6 203.65 370.6 204.55 370.6 205.1 371.3 205.7 372 205.7 373.6 205.7 375.05 205.1 375.8 204.5 376.5 203.65 376.5 202.6 376.5 202 375.55 201.55 374.85 201.55 373.4
M 177.1 391.45
Q 176.15 392.3 176.15 393.5 176.15 394.85 177.25 395.6 178.05 396.15 181.05 396.8 181.7 396.95 181.9 397.15 182.05 397.35 182.05 397.6 182.05 398.05 181.75 398.25 181.25 398.65 180.3 398.65 179.45 398.65 178.95 398.25 178.45 397.9 178.3 397.15
L 175.8 397.55
Q 176.15 398.85 177.3 399.65 178.4 400.4 180.3 400.4 182.4 400.4 183.5 399.5 184.55 398.55 184.55 397.3 184.55 396.1 183.75 395.45 183 394.8 181 394.35 179.05 393.9 178.7 393.65 178.45 393.45 178.45 393.2 178.45 392.9 178.75 392.7 179.15 392.4 180.15 392.4 180.9 392.4 181.35 392.7 181.75 393 181.9 393.55
L 184.25 393.1
Q 183.9 391.9 182.95 391.25 182 390.65 180.1 390.65 178.1 390.65 177.1 391.45
M 170.25 390.65
Q 168.4 390.65 167.2 391.95 165.95 393.3 165.95 395.6 165.95 397.55 166.9 398.8 168.05 400.4 170.5 400.4 172.05 400.4 173.05 399.7 174.1 399 174.55 397.65
L 172.1 397.25
Q 171.9 397.95 171.5 398.25 171.1 398.55 170.55 398.55 169.7 398.55 169.1 397.95 168.55 397.35 168.5 396.25
L 174.7 396.25
Q 174.75 393.4 173.55 392.05 172.35 390.65 170.25 390.65
M 169.05 393.15
Q 169.6 392.55 170.4 392.55 171.15 392.55 171.7 393.1 172.2 393.65 172.25 394.75
L 168.55 394.75
Q 168.55 393.7 169.05 393.15
M 181.05 365.35
L 178.6 365.35 178.6 367.65 181.05 367.65 181.05 365.35
M 175.3 369.45
Q 174.3 368.7 172.6 368.7 170.5 368.7 169.25 370 168.05 371.25 168.05 373.6 168.05 375.85 169.25 377.15 170.5 378.45 172.55 378.45 174.35 378.45 175.4 377.6 176.5 376.75 176.85 375.1
L 174.45 374.65
Q 174.25 375.65 173.8 376.05 173.35 376.45 172.65 376.45 171.7 376.45 171.15 375.75 170.6 375.05 170.6 373.4 170.6 371.9 171.15 371.3 171.7 370.65 172.6 370.65 173.3 370.65 173.75 371 174.2 371.4 174.3 372.1
L 176.75 371.65
Q 176.3 370.15 175.3 369.45
M 181.05 368.9
L 178.6 368.9 178.6 378.25 181.05 378.25 181.05 368.9
M 166.05 368.9
L 163.6 368.9 163.6 378.25 166.05 378.25 166.05 368.9
M 163.6 365.35
L 163.6 367.65 166.05 367.65 166.05 365.35 163.6 365.35
M 191.3 370.1
Q 189.95 368.7 187.85 368.7 186.45 368.7 185.35 369.3 184.25 369.9 183.65 371.05 183 372.2 183 373.45 183 375.05 183.65 376.2 184.25 377.3 185.4 377.9 186.55 378.45 187.85 378.45 189.95 378.45 191.3 377.05 192.65 375.65 192.65 373.55 192.65 371.45 191.3 370.1
M 190.1 373.55
Q 190.1 374.95 189.45 375.7 188.8 376.45 187.85 376.45 186.85 376.45 186.2 375.7 185.55 374.95 185.55 373.6 185.55 372.2 186.2 371.45 186.85 370.7 187.85 370.7 188.8 370.7 189.45 371.45 190.1 372.2 190.1 373.55
M 161.85 390.85
L 159.55 390.85 159.55 400.2 162 400.2 162 397.3
Q 162 394.95 162.2 394.2 162.4 393.45 162.8 393.15 163.15 392.85 163.65 392.85 164.2 392.85 164.8 393.25
L 165.6 391.1
Q 164.8 390.65 163.95 390.65 163.35 390.65 162.9 390.95 162.4 391.25 161.85 392.2
L 161.85 390.85
M 151.85 387.3
L 147.65 387.3 147.65 400.2 150.25 400.2 150.25 395.35 151.95 395.35
Q 153.75 395.35 154.65 395.15 155.35 395 156 394.55 156.7 394.1 157.1 393.25 157.55 392.45 157.55 391.25 157.55 389.75 156.8 388.75 156.05 387.8 154.95 387.5 154.2 387.3 151.85 387.3
M 150.25 393.15
L 150.25 389.5 151.5 389.5
Q 152.95 389.5 153.4 389.55 154.05 389.7 154.45 390.15 154.85 390.6 154.85 391.3 154.85 391.9 154.55 392.3 154.25 392.75 153.75 392.95 153.25 393.15 151.7 393.15
L 150.25 393.15
M 156 370.95
Q 156.5 370.6 157.15 370.6 157.65 370.6 158 370.85 158.35 371.1 158.5 371.55 158.65 371.95 158.65 373.5
L 158.65 378.25 161.15 378.25 161.15 372.45
Q 161.15 371.35 161 370.8 160.85 370.2 160.5 369.75 160.15 369.3 159.5 369 158.8 368.7 158 368.7 156.15 368.7 154.9 370.3
L 154.9 368.9 152.65 368.9 152.65 378.25 155.1 378.25 155.1 374
Q 155.1 372.45 155.3 371.85 155.5 371.3 156 370.95
M 150.2 365.35
L 147.6 365.35 147.6 378.25 150.2 378.25 150.2 365.35
M 420.75 381.45
Q 419.4 380.05 417.3 380.05 415.9 380.05 414.8 380.65 413.7 381.25 413.1 382.4 412.45 383.55 412.45 384.8 412.45 386.4 413.1 387.55 413.7 388.65 414.85 389.25 416 389.8 417.3 389.8 419.4 389.8 420.75 388.4 422.1 387 422.1 384.9 422.1 382.8 420.75 381.45
M 417.3 382.05
Q 418.25 382.05 418.9 382.8 419.55 383.55 419.55 384.9 419.55 386.3 418.9 387.05 418.25 387.8 417.3 387.8 416.3 387.8 415.65 387.05 415 386.3 415 384.95 415 383.55 415.65 382.8 416.3 382.05 417.3 382.05
M 401.5 384.9
Q 401.5 387.2 402.65 388.5 403.8 389.8 405.4 389.8 406.2 389.8 406.95 389.4 407.75 389.05 408.3 388.25
L 408.3 389.6 410.6 389.6 410.6 376.7 408.15 376.7 408.15 381.35
Q 407 380.05 405.45 380.05 403.7 380.05 402.6 381.3 401.5 382.5 401.5 384.9
M 404.45 386.9
Q 404 386.2 404 384.75 404 383.35 404.6 382.65 405.2 381.95 406.1 381.95 407 381.95 407.55 382.65 408.15 383.35 408.15 384.95 408.15 386.4 407.55 387.15 406.95 387.85 406.1 387.85 405.05 387.85 404.45 386.9
M 395.5 381.95
Q 396.5 381.95 396.85 382.25 397.2 382.55 397.2 383.25
L 397.2 383.5
Q 396.55 383.8 394.8 384.1 393.5 384.35 392.85 384.7 392.15 385 391.75 385.65 391.4 386.25 391.4 387.05 391.4 388.25 392.25 389.05 393.05 389.8 394.5 389.8 395.3 389.8 396.05 389.5 396.75 389.2 397.4 388.6 397.4 388.65 397.5 388.85 397.6 389.35 397.7 389.6
L 400.15 389.6
Q 399.85 388.95 399.7 388.35 399.6 387.75 399.6 386.55
L 399.65 383.65
Q 399.65 382.05 399.3 381.45 398.95 380.85 398.15 380.45 397.35 380.05 395.7 380.05 393.85 380.05 392.95 380.7 392.05 381.35 391.65 382.7
L 393.9 383.1
Q 394.1 382.45 394.5 382.2 394.85 381.95 395.5 381.95
M 394.25 387.7
Q 393.85 387.3 393.85 386.8 393.85 386.25 394.35 385.9 394.65 385.7 395.7 385.5 396.7 385.25 397.2 385.1
L 397.2 385.6
Q 397.2 386.5 397.1 386.8 396.95 387.3 396.5 387.65 395.9 388.05 395.25 388.05 394.65 388.05 394.25 387.7
M 365.05 379
L 367.5 379 367.5 376.7 365.05 376.7 365.05 379
M 367.5 380.25
L 365.05 380.25 365.05 389.6 367.5 389.6 367.5 380.25
M 374.3 380.05
Q 372.9 380.05 371.8 380.65 370.7 381.25 370.1 382.4 369.45 383.55 369.45 384.8 369.45 386.4 370.1 387.55 370.7 388.65 371.85 389.25 373 389.8 374.3 389.8 376.4 389.8 377.75 388.4 379.1 387 379.1 384.9 379.1 382.8 377.75 381.45 376.4 380.05 374.3 380.05
M 372.65 382.8
Q 373.3 382.05 374.3 382.05 375.25 382.05 375.9 382.8 376.55 383.55 376.55 384.9 376.55 386.3 375.9 387.05 375.25 387.8 374.3 387.8 373.3 387.8 372.65 387.05 372 386.3 372 384.95 372 383.55 372.65 382.8
M 383.7 383.2
Q 383.9 382.65 384.4 382.3 384.9 381.95 385.55 381.95 386.05 381.95 386.4 382.2 386.75 382.45 386.9 382.9 387.05 383.3 387.05 384.85
L 387.05 389.6 389.55 389.6 389.55 383.8
Q 389.55 382.7 389.4 382.15 389.25 381.55 388.9 381.1 388.55 380.65 387.9 380.35 387.2 380.05 386.4 380.05 384.55 380.05 383.3 381.65
L 383.3 380.25 381.05 380.25 381.05 389.6 383.5 389.6 383.5 385.35
Q 383.5 383.8 383.7 383.2
M 348.6 380.05
Q 346.75 380.05 345.55 381.35 344.3 382.7 344.3 385 344.3 386.95 345.25 388.2 346.4 389.8 348.85 389.8 350.4 389.8 351.4 389.1 352.45 388.4 352.9 387.05
L 350.45 386.65
Q 350.25 387.35 349.85 387.65 349.45 387.95 348.9 387.95 348.05 387.95 347.45 387.35 346.9 386.75 346.85 385.65
L 353.05 385.65
Q 353.1 382.8 351.9 381.45 350.7 380.05 348.6 380.05
M 348.75 381.95
Q 349.5 381.95 350.05 382.5 350.55 383.05 350.6 384.15
L 346.9 384.15
Q 346.9 383.1 347.4 382.55 347.95 381.95 348.75 381.95
M 357.05 383.05
Q 356.8 382.85 356.8 382.6 356.8 382.3 357.1 382.1 357.5 381.8 358.5 381.8 359.25 381.8 359.7 382.1 360.1 382.4 360.25 382.95
L 362.6 382.5
Q 362.25 381.3 361.3 380.65 360.35 380.05 358.45 380.05 356.45 380.05 355.45 380.85 354.5 381.7 354.5 382.9 354.5 384.25 355.6 385 356.4 385.55 359.4 386.2 360.05 386.35 360.25 386.55 360.4 386.75 360.4 387 360.4 387.45 360.1 387.65 359.6 388.05 358.65 388.05 357.8 388.05 357.3 387.65 356.8 387.3 356.65 386.55
L 354.15 386.95
Q 354.5 388.25 355.65 389.05 356.75 389.8 358.65 389.8 360.75 389.8 361.85 388.9 362.9 387.95 362.9 386.7 362.9 385.5 362.1 384.85 361.35 384.2 359.35 383.75 357.4 383.3 357.05 383.05
M 342.05 382.25
Q 342.6 382.25 343.2 382.65
L 344 380.5
Q 343.2 380.05 342.35 380.05 341.75 380.05 341.3 380.35 340.8 380.65 340.25 381.6
L 340.25 380.25 337.95 380.25 337.95 389.6 340.4 389.6 340.4 386.7
Q 340.4 384.35 340.6 383.6 340.8 382.85 341.2 382.55 341.55 382.25 342.05 382.25
M 335.9 380.65
Q 335.9 379.15 335.15 378.15 334.4 377.2 333.3 376.9 332.55 376.7 330.2 376.7
L 326 376.7 326 389.6 328.6 389.6 328.6 384.75 330.3 384.75
Q 332.1 384.75 333 384.55 333.7 384.4 334.35 383.95 335.05 383.5 335.45 382.65 335.9 381.85 335.9 380.65
M 328.6 382.55
L 328.6 378.9 329.85 378.9
Q 331.3 378.9 331.75 378.95 332.4 379.1 332.8 379.55 333.2 380 333.2 380.7 333.2 381.3 332.9 381.7 332.6 382.15 332.1 382.35 331.6 382.55 330.05 382.55
L 328.6 382.55 Z"/>
</g>

<path id="Layer0_0_1_STROKES" stroke="#0066CC" stroke-width="5" stroke-linejoin="round" stroke-linecap="round" fill="none" d="
M 84 56.05
L 534 56.05
Q 554 56.05 554 76.05
L 554 526.05
Q 554 546.05 534 546.05
L 84 546.05
Q 64 546.05 64 526.05
L 64 76.05
Q 64 56.05 84 56.05 Z"/>

<path id="Layer0_4_1_STROKES" stroke="#FF0000" stroke-width="5" stroke-linejoin="round" stroke-linecap="round" fill="none" d="
M 132.38819274902343 384.1314224243164
Q 132.38819274902343 397.81156158447266 122.72809448242188 407.47165985107426 113.06799621582033 417.13175811767576 99.38785705566406 417.13175811767576 85.70771789550784 417.13175811767576 76.04761962890626 407.47165985107426 66.38752136230468 397.81156158447266 66.38752136230468 384.1314224243164 66.38752136230468 370.45128326416017 76.04761962890626 360.7911849975586 85.70771789550784 351.13108673095707 99.38785705566406 351.13108673095707 113.06799621582033 351.13108673095707 122.72809448242188 360.7911849975586 132.38819274902343 370.45128326416017 132.38819274902343 384.1314224243164 Z"/>

<path id="Layer0_5_1_STROKES" stroke="#FF0000" stroke-width="5" stroke-linejoin="round" stroke-linecap="round" fill="none" d="
M -419.1 117.8
Q -419.1 118.95 -419.9 119.75 -420.7 120.55 -421.85 120.55 -423 120.55 -423.8 119.75 -424.6 118.95 -424.6 117.8 -424.6 116.65 -423.8 115.85 -423 115.05 -421.85 115.05 -420.7 115.05 -419.9 115.85 -419.1 116.65 -419.1 117.8 Z"/>
</defs>

<g transform="matrix( 1, 0, 0, 1, -58,-50) ">
<use xlink:href="#Layer0_0_FILL"/>

<use xlink:href="#Layer0_0_1_STROKES"/>
</g>

<g transform="matrix( 1, 0, 0, 1, 0,0) ">
<use xlink:href="#Layer0_1_FILL"/>
</g>

<g transform="matrix( 1, 0, 0, 1, 109,-9) ">
<use xlink:href="#Layer0_2_FILL"/>
</g>

<g transform="matrix( 1, 0, 0, 1, 108,-6) ">
<use xlink:href="#Layer0_3_FILL"/>
</g>

<g transform="matrix( 0.600006103515625, 0, 0, 0.600006103515625, 310.05,244.3) ">
<use xlink:href="#Layer0_4_FILL"/>

<use xlink:href="#Layer0_4_1_STROKES" transform="matrix( 1.6666412353515625, 0, 0, 1.6666412353515625, -516.7,-407.15) "/>
</g>

<g transform="matrix( 1, 0, 0, 1, 729.2,266.05) ">
<use xlink:href="#Layer0_5_FILL"/>

<use xlink:href="#Layer0_5_1_STROKES"/>
</g>

<g transform="matrix( 1, 0, 0, 1, 0,0) ">
<use xlink:href="#Layer0_6_FILL"/>
</g>

<g transform="matrix( 1, 0, 0, 1, 0,0) ">
<use xlink:href="#Layer0_7_FILL"/>
</g>
</svg>
